<svg xmlns="http://www.w3.org/2000/svg" xmlns:xlink="http://www.w3.org/1999/xlink" zoomAndPan="magnify" preserveAspectRatio="xMidYMid meet" version="1.0" viewBox="61.84 88.17 254.62 195.78"><defs><g/><clipPath id="id1"><path d="M 95.992188 88.167969 L 278.992188 88.167969 L 278.992188 154.167969 L 95.992188 154.167969 Z M 95.992188 88.167969 " clip-rule="nonzero"/></clipPath><clipPath id="id2"><path d="M 95.992188 218.136719 L 278.992188 218.136719 L 278.992188 283.949219 L 95.992188 283.949219 Z M 95.992188 218.136719 " clip-rule="nonzero"/></clipPath><clipPath id="id3"><path d="M 224 180 L 316 180 L 316 199 L 224 199 Z M 224 180 " clip-rule="nonzero"/></clipPath><clipPath id="id4"><path d="M 224.574219 184.179688 L 315.179688 179.054688 L 316.195312 197.027344 L 225.589844 202.152344 Z M 224.574219 184.179688 " clip-rule="nonzero"/></clipPath><clipPath id="id5"><path d="M 219.59375 184.460938 L 315.441406 179.042969 L 316.457031 197.011719 L 220.609375 202.433594 Z M 219.59375 184.460938 " clip-rule="nonzero"/></clipPath><clipPath id="id6"><path d="M 61.839844 188.25 L 155.589844 188.25 L 155.589844 205.5 L 61.839844 205.5 Z M 61.839844 188.25 " clip-rule="nonzero"/></clipPath></defs><g fill="#ff1616" fill-opacity="1"><g transform="translate(150.832993, 214.874986)"><g><path d="M 44.664062 -25.46875 C 44.171875 -25.59375 43.679688 -25.347656 43.554688 -24.976562 C 41.832031 -16.242188 38.386719 -4.304688 34.695312 2.335938 C 34.082031 3.074219 32.480469 4.921875 30.757812 3.9375 C 29.898438 3.445312 28.667969 -1.351562 30.265625 -13.410156 C 31.621094 -23.992188 34.695312 -35.433594 38.265625 -43.925781 C 39.003906 -45.894531 38.511719 -48.355469 36.542969 -50.078125 L 34.695312 -51.796875 C 34.082031 -52.414062 33.097656 -52.78125 32.234375 -52.78125 C 31.375 -52.660156 30.757812 -52.289062 30.144531 -51.550781 C 28.421875 -48.230469 26.574219 -43.554688 25.101562 -38.140625 L 25.101562 -38.386719 C 24.363281 -41.339844 22.640625 -43.554688 20.425781 -44.664062 C 18.703125 -45.402344 16.117188 -45.402344 13.535156 -44.417969 C 10.089844 -43.0625 3.691406 -39.003906 0.367188 -26.820312 C -2.089844 -16.609375 -0.367188 -11.074219 1.230469 -8.121094 C 3.199219 -5.167969 5.78125 -4.429688 6.765625 -4.183594 C 7.257812 -4.058594 7.628906 -4.058594 8.121094 -4.058594 C 10.828125 -4.058594 14.027344 -5.660156 16.980469 -9.71875 C 17.101562 -9.964844 17.226562 -10.089844 17.472656 -10.210938 C 17.472656 -10.335938 17.59375 -10.335938 17.59375 -10.457031 C 18.949219 -12.425781 20.300781 -14.765625 21.53125 -17.839844 C 21.039062 -10.703125 20.917969 -0.121094 24.238281 5.414062 C 25.46875 7.503906 27.066406 8.734375 29.160156 8.980469 L 29.652344 8.980469 C 33.589844 8.980469 37.15625 3.566406 40.972656 -7.503906 C 43.679688 -15.75 45.402344 -24.238281 45.523438 -24.363281 C 45.402344 -24.855469 45.15625 -25.347656 44.664062 -25.46875 Z M 23.992188 -33.21875 C 23.378906 -30.757812 23.007812 -28.296875 22.640625 -25.714844 C 20.425781 -19.316406 18.210938 -14.640625 15.996094 -11.441406 C 14.027344 -8.859375 11.6875 -8.734375 10.703125 -9.351562 C 9.597656 -9.964844 7.011719 -11.441406 9.964844 -25.59375 C 12.671875 -38.878906 18.457031 -41.09375 20.300781 -40.847656 C 21.65625 -40.601562 22.886719 -39.25 23.378906 -37.894531 C 23.746094 -36.664062 23.992188 -35.066406 23.992188 -33.21875 Z M 23.992188 -33.21875 "/></g></g></g><g fill="#ff1616" fill-opacity="1"><g transform="translate(194.510442, 214.874986)"><g><path d="M 31.375 -25.347656 C 31.003906 -25.59375 30.390625 -25.59375 30.144531 -25.222656 C 30.019531 -25.101562 25.960938 -19.933594 15.503906 -14.765625 C 14.148438 -19.195312 11.8125 -22.640625 9.71875 -25.835938 C 7.382812 -29.28125 5.414062 -32.234375 5.167969 -35.679688 C 4.921875 -41.09375 8.367188 -46.507812 11.8125 -48.355469 C 12.425781 -48.722656 13.65625 -49.214844 14.519531 -48.601562 C 15.011719 -48.230469 15.503906 -47.863281 15.75 -47.371094 C 17.226562 -45.277344 17.59375 -41.957031 16.609375 -39.496094 C 16.363281 -39.003906 16.609375 -38.511719 16.980469 -38.265625 C 17.472656 -38.140625 17.964844 -38.265625 18.210938 -38.757812 C 19.5625 -41.710938 19.070312 -45.769531 17.226562 -48.476562 C 16.855469 -49.09375 16.242188 -49.585938 15.75 -50.078125 L 15.625 -50.078125 L 15.625 -50.199219 C 14.148438 -51.304688 12.304688 -51.796875 10.210938 -51.675781 C 6.519531 -51.429688 2.953125 -49.460938 0.367188 -46.140625 C -2.707031 -42.203125 -3.8125 -37.15625 -2.953125 -31.867188 C -2.089844 -27.558594 0.121094 -24.238281 2.460938 -21.039062 C 4.429688 -18.210938 6.519531 -15.132812 7.628906 -11.320312 C 0.984375 -8.734375 -3.445312 -4.058594 -4.304688 1.351562 C -4.796875 4.183594 -4.058594 6.765625 -2.460938 8.121094 C -1.722656 8.734375 -0.859375 9.105469 0.246094 9.351562 C 1.230469 9.71875 2.335938 9.84375 3.445312 9.84375 C 5.90625 9.84375 8.613281 8.980469 10.828125 7.382812 C 13.65625 5.167969 16.980469 0.738281 16.609375 -8.242188 C 16.488281 -9.964844 16.363281 -11.441406 15.996094 -12.917969 C 27.066406 -18.457031 31.375 -23.746094 31.496094 -24.117188 C 31.867188 -24.484375 31.742188 -24.976562 31.375 -25.347656 Z M 3.8125 7.257812 C 1.96875 8.242188 -0.121094 7.628906 -1.230469 6.765625 C -2.335938 5.78125 -2.828125 3.8125 -2.460938 1.597656 C -2.214844 -0.121094 -0.613281 -6.027344 7.996094 -9.472656 C 8.242188 -8.488281 8.367188 -7.503906 8.367188 -6.398438 C 8.734375 3.320312 5.78125 6.273438 3.8125 7.257812 Z M 3.8125 7.257812 "/></g></g></g><g clip-path="url(#id1)"><path fill="#ff1616" d="M 187.492188 88.1875 C 214.140625 88.1875 238.261719 99.019531 255.722656 116.53125 C 266.148438 126.984375 274.199219 139.820312 278.992188 154.15625 L 277.585938 154.15625 C 272.839844 140.191406 264.960938 127.683594 254.78125 117.476562 C 237.5625 100.207031 213.769531 89.523438 187.492188 89.523438 C 161.214844 89.523438 137.421875 100.207031 120.203125 117.476562 C 110.027344 127.683594 102.144531 140.191406 97.398438 154.15625 L 95.992188 154.15625 C 100.789062 139.824219 108.839844 126.988281 119.261719 116.53125 C 136.722656 99.019531 160.847656 88.1875 187.492188 88.1875 Z M 187.492188 88.1875 " fill-opacity="1" fill-rule="evenodd"/></g><g clip-path="url(#id2)"><path fill="#ff1616" d="M 187.492188 283.933594 C 214.140625 283.933594 238.261719 273.101562 255.722656 255.589844 C 266.148438 245.136719 274.199219 232.300781 278.992188 217.964844 L 277.585938 217.964844 C 272.839844 231.929688 264.960938 244.4375 254.78125 254.644531 C 237.5625 271.914062 213.769531 282.597656 187.492188 282.597656 C 161.214844 282.597656 137.421875 271.914062 120.203125 254.644531 C 110.027344 244.4375 102.144531 231.929688 97.398438 217.964844 L 95.992188 217.964844 C 100.789062 232.296875 108.839844 245.132812 119.261719 255.589844 C 136.722656 273.101562 160.847656 283.933594 187.492188 283.933594 Z M 187.492188 283.933594 " fill-opacity="1" fill-rule="evenodd"/></g><g clip-path="url(#id3)"><g clip-path="url(#id4)"><g clip-path="url(#id5)"><path fill="#ff1616" d="M 221.488281 192.632812 C 222.84375 190.726562 225.621094 188.136719 228.882812 186.359375 C 232.144531 184.585938 235.898438 183.640625 240.164062 183.441406 C 244.429688 183.238281 249.203125 183.785156 255.074219 185.242188 C 260.945312 186.699219 267.914062 189.074219 274.128906 191.035156 C 280.347656 192.996094 285.828125 194.558594 290.988281 194.921875 C 296.152344 195.28125 301.007812 194.433594 304.628906 192.742188 C 308.242188 191.039062 310.625 188.488281 312.011719 186.609375 C 313.398438 184.730469 313.785156 183.53125 314.234375 182.511719 C 314.675781 181.488281 315.175781 180.648438 315.40625 180.695312 C 315.636719 180.742188 315.609375 181.679688 315.289062 183.003906 C 314.964844 184.332031 314.347656 186.054688 312.589844 188.257812 C 310.835938 190.457031 307.925781 193.148438 304.894531 194.980469 C 301.867188 196.820312 298.699219 197.8125 294.300781 198.101562 C 289.890625 198.394531 284.25 197.976562 278.511719 196.761719 C 272.773438 195.539062 266.949219 193.511719 261.164062 191.40625 C 255.375 189.300781 249.621094 187.101562 244.140625 186.414062 C 238.652344 185.726562 233.4375 186.554688 229.535156 188.417969 C 225.632812 190.277344 223.050781 193.1875 221.71875 194.785156 C 220.398438 196.386719 220.335938 196.671875 220.269531 196.214844 C 220.203125 195.753906 220.136719 194.542969 221.488281 192.632812 Z M 221.488281 192.632812 " fill-opacity="1" fill-rule="evenodd"/></g></g></g><g fill="#ffffff" fill-opacity="1"><g transform="translate(124.885986, 141.144618)"><g><path d="M 0.265625 -10.8125 L -1.8125 -8.78125 L 3.46875 -3.390625 L 2.21875 -2.15625 L -3.0625 -7.546875 L -5.15625 -5.515625 L -6.234375 -6.625 L -0.8125 -11.921875 Z M 0.265625 -10.8125 "/></g></g></g><g fill="#ffffff" fill-opacity="1"><g transform="translate(133.945635, 132.687397)"><g><path d="M 1.71875 -12.390625 L 7 -4.984375 L 5.578125 -3.96875 L 3.328125 -7.125 L -0.03125 -4.734375 L 2.21875 -1.578125 L 0.78125 -0.546875 L -4.5 -7.953125 L -3.0625 -8.984375 L -0.921875 -6 L 2.4375 -8.390625 L 0.296875 -11.375 Z M 1.71875 -12.390625 "/></g></g></g><g fill="#ffffff" fill-opacity="1"><g transform="translate(145.587055, 124.899094)"><g><path d="M 5.8125 -4.640625 L 6.5 -3.265625 L 0.859375 -0.421875 L -3.21875 -8.546875 L 2.3125 -11.34375 L 3 -9.96875 L -0.96875 -7.96875 L 0.015625 -6.015625 L 3.4375 -7.734375 L 4.078125 -6.4375 L 0.65625 -4.71875 L 1.734375 -2.59375 Z M 5.8125 -4.640625 "/></g></g></g><g fill="#ffffff" fill-opacity="1"><g transform="translate(156.766079, 119.741442)"><g/></g></g><g fill="#ffffff" fill-opacity="1"><g transform="translate(164.022065, 117.228983)"><g><path d="M 1.40625 -9.640625 L 2.9375 -10 L 8.34375 -1.90625 L 6.5625 -1.5 L 5.234375 -3.515625 L 2.15625 -2.8125 L 1.84375 -0.421875 L 0.0625 -0.015625 Z M 4.65625 -4.671875 L 2.625 -7.875 L 2.15625 -4.09375 Z M 4.65625 -4.671875 "/></g></g></g><g fill="#ffffff" fill-opacity="1"><g transform="translate(176.84119, 114.644155)"><g><path d="M 0.953125 -0.0625 L 0.296875 -9.125 L 4.296875 -9.421875 C 4.710938 -9.453125 5.101562 -9.394531 5.46875 -9.25 C 5.832031 -9.113281 6.15625 -8.910156 6.4375 -8.640625 C 6.71875 -8.367188 6.941406 -8.054688 7.109375 -7.703125 C 7.273438 -7.347656 7.375 -6.988281 7.40625 -6.625 C 7.445312 -6.03125 7.335938 -5.476562 7.078125 -4.96875 C 6.828125 -4.46875 6.457031 -4.097656 5.96875 -3.859375 L 8.28125 -0.59375 L 6.296875 -0.453125 L 4.21875 -3.359375 L 2.5 -3.234375 L 2.71875 -0.203125 Z M 2.390625 -4.78125 L 4.59375 -4.9375 C 4.75 -4.945312 4.894531 -4.992188 5.03125 -5.078125 C 5.164062 -5.171875 5.28125 -5.285156 5.375 -5.421875 C 5.46875 -5.566406 5.535156 -5.726562 5.578125 -5.90625 C 5.628906 -6.09375 5.648438 -6.289062 5.640625 -6.5 C 5.617188 -6.707031 5.566406 -6.898438 5.484375 -7.078125 C 5.398438 -7.253906 5.296875 -7.40625 5.171875 -7.53125 C 5.046875 -7.65625 4.90625 -7.75 4.75 -7.8125 C 4.601562 -7.875 4.453125 -7.894531 4.296875 -7.875 L 2.171875 -7.734375 Z M 2.390625 -4.78125 "/></g></g></g><g fill="#ffffff" fill-opacity="1"><g transform="translate(189.830192, 114.059867)"><g><path d="M 8.3125 -6.9375 L 5.40625 -7.15625 L 4.828125 0.375 L 3.078125 0.234375 L 3.65625 -7.296875 L 0.75 -7.515625 L 0.875 -9.046875 L 8.4375 -8.46875 Z M 8.3125 -6.9375 "/></g></g></g><g fill="#ffffff" fill-opacity="1"><g transform="translate(202.290739, 115.437422)"><g/></g></g><g fill="#ffffff" fill-opacity="1"><g transform="translate(209.812316, 117.061267)"><g><path d="M 8.140625 -4.421875 C 8.085938 -4.492188 8.003906 -4.601562 7.890625 -4.75 C 7.773438 -4.894531 7.625 -5.050781 7.4375 -5.21875 C 7.25 -5.382812 7.035156 -5.535156 6.796875 -5.671875 C 6.566406 -5.816406 6.328125 -5.929688 6.078125 -6.015625 C 5.609375 -6.171875 5.234375 -6.203125 4.953125 -6.109375 C 4.671875 -6.015625 4.476562 -5.804688 4.375 -5.484375 C 4.3125 -5.304688 4.300781 -5.144531 4.34375 -5 C 4.394531 -4.863281 4.488281 -4.722656 4.625 -4.578125 C 4.769531 -4.441406 4.953125 -4.296875 5.171875 -4.140625 C 5.390625 -3.984375 5.65625 -3.8125 5.96875 -3.625 C 6.351562 -3.375 6.691406 -3.128906 6.984375 -2.890625 C 7.285156 -2.648438 7.523438 -2.390625 7.703125 -2.109375 C 7.890625 -1.835938 8.003906 -1.546875 8.046875 -1.234375 C 8.085938 -0.921875 8.039062 -0.5625 7.90625 -0.15625 C 7.757812 0.300781 7.539062 0.664062 7.25 0.9375 C 6.96875 1.21875 6.644531 1.410156 6.28125 1.515625 C 5.925781 1.617188 5.539062 1.65625 5.125 1.625 C 4.707031 1.59375 4.285156 1.507812 3.859375 1.375 C 3.210938 1.164062 2.601562 0.859375 2.03125 0.453125 C 1.46875 0.046875 0.988281 -0.414062 0.59375 -0.9375 L 1.8125 -2.140625 C 1.851562 -2.046875 1.953125 -1.90625 2.109375 -1.71875 C 2.265625 -1.539062 2.453125 -1.351562 2.671875 -1.15625 C 2.898438 -0.96875 3.15625 -0.773438 3.4375 -0.578125 C 3.726562 -0.390625 4.039062 -0.238281 4.375 -0.125 C 5.3125 0.175781 5.878906 0.03125 6.078125 -0.5625 C 6.140625 -0.75 6.132812 -0.925781 6.0625 -1.09375 C 6 -1.257812 5.882812 -1.421875 5.71875 -1.578125 C 5.550781 -1.742188 5.34375 -1.910156 5.09375 -2.078125 C 4.84375 -2.253906 4.566406 -2.445312 4.265625 -2.65625 C 3.878906 -2.894531 3.554688 -3.132812 3.296875 -3.375 C 3.035156 -3.613281 2.832031 -3.851562 2.6875 -4.09375 C 2.539062 -4.34375 2.457031 -4.601562 2.4375 -4.875 C 2.414062 -5.15625 2.457031 -5.457031 2.5625 -5.78125 C 2.707031 -6.226562 2.914062 -6.597656 3.1875 -6.890625 C 3.46875 -7.179688 3.785156 -7.390625 4.140625 -7.515625 C 4.503906 -7.648438 4.894531 -7.710938 5.3125 -7.703125 C 5.738281 -7.691406 6.171875 -7.617188 6.609375 -7.484375 C 7.222656 -7.273438 7.753906 -6.992188 8.203125 -6.640625 C 8.648438 -6.296875 9.023438 -5.929688 9.328125 -5.546875 Z M 8.140625 -4.421875 "/></g></g></g><g fill="#ffffff" fill-opacity="1"><g transform="translate(221.456994, 121.184112)"><g><path d="M 10.296875 -3.328125 L 7.6875 -4.625 L 4.34375 2.140625 L 2.765625 1.375 L 6.109375 -5.390625 L 3.5 -6.6875 L 4.1875 -8.078125 L 10.984375 -4.71875 Z M 10.296875 -3.328125 "/></g></g></g><g fill="#ffffff" fill-opacity="1"><g transform="translate(232.442429, 126.964383)"><g><path d="M 8.09375 -5.4375 L 9.375 -4.53125 L 7.015625 4.90625 L 5.515625 3.859375 L 6.125 1.515625 L 3.53125 -0.296875 L 1.546875 1.078125 L 0.046875 0.03125 Z M 6.59375 0.296875 L 7.578125 -3.34375 L 4.484375 -1.171875 Z M 6.59375 0.296875 "/></g></g></g><g fill="#ffffff" fill-opacity="1"><g transform="translate(242.966595, 134.699659)"><g><path d="M 5.953125 4.28125 C 4.921875 4.3125 4.054688 3.992188 3.359375 3.328125 C 2.929688 2.910156 2.609375 2.429688 2.390625 1.890625 C 2.179688 1.359375 2.082031 0.804688 2.09375 0.234375 C 2.101562 -0.328125 2.222656 -0.890625 2.453125 -1.453125 C 2.679688 -2.023438 3.023438 -2.550781 3.484375 -3.03125 C 3.921875 -3.476562 4.410156 -3.816406 4.953125 -4.046875 C 5.492188 -4.285156 6.050781 -4.421875 6.625 -4.453125 C 7.195312 -4.484375 7.757812 -4.394531 8.3125 -4.1875 C 8.863281 -3.988281 9.367188 -3.671875 9.828125 -3.234375 C 10.441406 -2.640625 10.847656 -2 11.046875 -1.3125 C 11.242188 -0.632812 11.238281 0.0234375 11.03125 0.671875 L 9.40625 0.453125 C 9.550781 -0.0234375 9.554688 -0.492188 9.421875 -0.953125 C 9.296875 -1.410156 9.054688 -1.8125 8.703125 -2.15625 C 8.429688 -2.414062 8.125 -2.597656 7.78125 -2.703125 C 7.4375 -2.816406 7.082031 -2.847656 6.71875 -2.796875 C 6.363281 -2.753906 6.015625 -2.644531 5.671875 -2.46875 C 5.328125 -2.289062 5.015625 -2.054688 4.734375 -1.765625 C 4.429688 -1.453125 4.203125 -1.113281 4.046875 -0.75 C 3.890625 -0.394531 3.800781 -0.0351562 3.78125 0.328125 C 3.757812 0.691406 3.816406 1.046875 3.953125 1.390625 C 4.085938 1.734375 4.289062 2.035156 4.5625 2.296875 C 5.195312 2.910156 6.050781 3.164062 7.125 3.0625 L 7.578125 2.59375 L 6.265625 1.328125 L 7.15625 0.40625 L 9.515625 2.6875 L 6.28125 6.046875 L 5.234375 5.03125 Z M 5.953125 4.28125 "/></g></g></g><g fill="#fafafa" fill-opacity="1"><g transform="translate(116.480899, 227.941447)"><g><path d="M 0.484375 0.84375 L 7.125 -3 L 8.421875 -0.765625 C 8.734375 -0.222656 8.914062 0.289062 8.96875 0.78125 C 9.03125 1.28125 8.984375 1.75 8.828125 2.1875 C 8.679688 2.632812 8.445312 3.039062 8.125 3.40625 C 7.800781 3.769531 7.410156 4.085938 6.953125 4.359375 C 6.453125 4.648438 5.953125 4.832031 5.453125 4.90625 C 4.960938 4.988281 4.488281 4.976562 4.03125 4.875 C 3.582031 4.769531 3.164062 4.566406 2.78125 4.265625 C 2.394531 3.960938 2.0625 3.566406 1.78125 3.078125 Z M 6.578125 3.6875 C 6.984375 3.445312 7.316406 3.175781 7.578125 2.875 C 7.847656 2.570312 8.046875 2.242188 8.171875 1.890625 C 8.296875 1.535156 8.332031 1.160156 8.28125 0.765625 C 8.226562 0.378906 8.082031 -0.015625 7.84375 -0.421875 L 6.921875 -2.015625 L 1.4375 1.140625 L 2.359375 2.734375 C 2.597656 3.148438 2.878906 3.476562 3.203125 3.71875 C 3.523438 3.957031 3.875 4.109375 4.25 4.171875 C 4.625 4.242188 5.007812 4.234375 5.40625 4.140625 C 5.800781 4.054688 6.191406 3.90625 6.578125 3.6875 Z M 6.578125 3.6875 "/></g></g></g><g fill="#fafafa" fill-opacity="1"><g transform="translate(123.171672, 238.690553)"><g><path d="M 4.359375 4.359375 L 3.828125 4.78125 L 0.609375 0.75 L 6.59375 -4.046875 L 9.75 -0.109375 L 9.234375 0.3125 L 6.546875 -3.03125 L 4.375 -1.3125 L 6.71875 1.609375 L 6.21875 2.015625 L 3.875 -0.90625 L 1.609375 0.921875 Z M 4.359375 4.359375 "/></g></g></g><g fill="#fafafa" fill-opacity="1"><g transform="translate(130.629352, 247.426254)"><g><path d="M 8.234375 -0.84375 C 8.253906 -1.164062 8.179688 -1.503906 8.015625 -1.859375 C 7.847656 -2.222656 7.597656 -2.5625 7.265625 -2.875 C 6.765625 -3.34375 6.316406 -3.585938 5.921875 -3.609375 C 5.523438 -3.640625 5.175781 -3.492188 4.875 -3.171875 C 4.71875 -2.992188 4.617188 -2.820312 4.578125 -2.65625 C 4.535156 -2.5 4.539062 -2.316406 4.59375 -2.109375 C 4.644531 -1.910156 4.742188 -1.691406 4.890625 -1.453125 C 5.035156 -1.210938 5.207031 -0.9375 5.40625 -0.625 C 5.65625 -0.289062 5.863281 0.0234375 6.03125 0.328125 C 6.207031 0.640625 6.320312 0.929688 6.375 1.203125 C 6.4375 1.472656 6.429688 1.738281 6.359375 2 C 6.296875 2.257812 6.144531 2.515625 5.90625 2.765625 C 5.664062 3.023438 5.40625 3.195312 5.125 3.28125 C 4.851562 3.375 4.566406 3.398438 4.265625 3.359375 C 3.960938 3.316406 3.660156 3.210938 3.359375 3.046875 C 3.054688 2.878906 2.753906 2.65625 2.453125 2.375 C 1.585938 1.570312 1.09375 0.601562 0.96875 -0.53125 L 1.671875 -0.734375 C 1.671875 -0.523438 1.691406 -0.3125 1.734375 -0.09375 C 1.785156 0.125 1.863281 0.347656 1.96875 0.578125 C 2.070312 0.816406 2.203125 1.046875 2.359375 1.265625 C 2.523438 1.484375 2.722656 1.695312 2.953125 1.90625 C 3.398438 2.320312 3.816406 2.566406 4.203125 2.640625 C 4.597656 2.710938 4.953125 2.582031 5.265625 2.25 C 5.421875 2.082031 5.519531 1.90625 5.5625 1.71875 C 5.601562 1.539062 5.59375 1.335938 5.53125 1.109375 C 5.46875 0.890625 5.359375 0.648438 5.203125 0.390625 C 5.054688 0.140625 4.875 -0.148438 4.65625 -0.484375 C 4.425781 -0.828125 4.234375 -1.140625 4.078125 -1.421875 C 3.921875 -1.703125 3.816406 -1.96875 3.765625 -2.21875 C 3.722656 -2.46875 3.734375 -2.707031 3.796875 -2.9375 C 3.867188 -3.164062 4.007812 -3.394531 4.21875 -3.625 C 4.46875 -3.882812 4.734375 -4.066406 5.015625 -4.171875 C 5.304688 -4.273438 5.601562 -4.3125 5.90625 -4.28125 C 6.21875 -4.25 6.523438 -4.15625 6.828125 -4 C 7.140625 -3.851562 7.441406 -3.640625 7.734375 -3.359375 C 8.109375 -3.015625 8.382812 -2.644531 8.5625 -2.25 C 8.75 -1.863281 8.867188 -1.457031 8.921875 -1.03125 Z M 8.234375 -0.84375 "/></g></g></g><g fill="#fafafa" fill-opacity="1"><g transform="translate(139.199253, 254.875705)"><g><path d="M 0.78125 0.578125 L 5.3125 -5.609375 L 5.921875 -5.171875 L 1.390625 1.015625 Z M 0.78125 0.578125 "/></g></g></g><g fill="#fafafa" fill-opacity="1"><g transform="translate(145.349966, 259.199071)"><g><path d="M 6.25 2.171875 C 5.238281 2.515625 4.332031 2.460938 3.53125 2.015625 C 3.070312 1.753906 2.703125 1.421875 2.421875 1.015625 C 2.140625 0.617188 1.945312 0.179688 1.84375 -0.296875 C 1.75 -0.773438 1.734375 -1.257812 1.796875 -1.75 C 1.859375 -2.25 2.007812 -2.710938 2.25 -3.140625 C 2.5 -3.585938 2.816406 -3.972656 3.203125 -4.296875 C 3.585938 -4.617188 4.003906 -4.859375 4.453125 -5.015625 C 4.898438 -5.179688 5.363281 -5.253906 5.84375 -5.234375 C 6.332031 -5.210938 6.800781 -5.078125 7.25 -4.828125 C 7.570312 -4.640625 7.847656 -4.429688 8.078125 -4.203125 C 8.316406 -3.984375 8.503906 -3.75 8.640625 -3.5 C 8.773438 -3.257812 8.867188 -3.003906 8.921875 -2.734375 C 8.984375 -2.472656 9.007812 -2.207031 9 -1.9375 L 8.296875 -1.890625 C 8.304688 -2.421875 8.1875 -2.878906 7.9375 -3.265625 C 7.695312 -3.660156 7.351562 -3.976562 6.90625 -4.21875 C 6.539062 -4.425781 6.160156 -4.535156 5.765625 -4.546875 C 5.378906 -4.566406 5.003906 -4.503906 4.640625 -4.359375 C 4.285156 -4.210938 3.957031 -4 3.65625 -3.71875 C 3.363281 -3.4375 3.117188 -3.117188 2.921875 -2.765625 C 2.710938 -2.378906 2.578125 -1.984375 2.515625 -1.578125 C 2.460938 -1.171875 2.472656 -0.773438 2.546875 -0.390625 C 2.628906 -0.00390625 2.78125 0.34375 3 0.65625 C 3.226562 0.976562 3.519531 1.238281 3.875 1.4375 C 4.257812 1.644531 4.675781 1.753906 5.125 1.765625 C 5.582031 1.785156 6.082031 1.691406 6.625 1.484375 L 7.25 0.375 L 5.75 -0.453125 L 6.03125 -0.984375 L 8.078125 0.140625 L 6.25 3.453125 L 5.703125 3.15625 Z M 6.25 2.171875 "/></g></g></g><g fill="#fafafa" fill-opacity="1"><g transform="translate(156.659742, 265.029125)"><g><path d="M 3.734375 -5.328125 L 1.625 0.578125 L 0.90625 0.328125 L 3.484375 -6.90625 L 4.03125 -6.71875 L 6.671875 1.015625 L 8.8125 -5.015625 L 9.546875 -4.75 L 6.96875 2.484375 L 6.328125 2.25 Z M 3.734375 -5.328125 "/></g></g></g><g fill="#fafafa" fill-opacity="1"><g transform="translate(169.236355, 268.979197)"><g><path d="M 0.953125 0.203125 L 2.5625 -7.296875 L 3.296875 -7.140625 L 1.6875 0.359375 Z M 0.953125 0.203125 "/></g></g></g><g fill="#fafafa" fill-opacity="1"><g transform="translate(176.630676, 270.435855)"><g><path d="M 2.234375 -6.109375 L 1.71875 0.140625 L 0.96875 0.078125 L 1.59375 -7.5625 L 2.171875 -7.515625 L 6.71875 -0.734375 L 7.234375 -7.09375 L 7.984375 -7.03125 L 7.359375 0.609375 L 6.703125 0.546875 Z M 2.234375 -6.109375 "/></g></g></g><g fill="#fafafa" fill-opacity="1"><g transform="translate(189.940429, 271.091829)"><g><path d="M 6.40625 -1.65625 C 5.75 -0.820312 4.957031 -0.363281 4.03125 -0.28125 C 3.507812 -0.238281 3.023438 -0.304688 2.578125 -0.484375 C 2.128906 -0.671875 1.726562 -0.9375 1.375 -1.28125 C 1.03125 -1.625 0.75 -2.015625 0.53125 -2.453125 C 0.3125 -2.898438 0.179688 -3.367188 0.140625 -3.859375 C 0.0976562 -4.367188 0.144531 -4.863281 0.28125 -5.34375 C 0.414062 -5.832031 0.628906 -6.265625 0.921875 -6.640625 C 1.210938 -7.023438 1.5625 -7.34375 1.96875 -7.59375 C 2.375 -7.84375 2.832031 -7.988281 3.34375 -8.03125 C 3.71875 -8.0625 4.066406 -8.046875 4.390625 -7.984375 C 4.710938 -7.929688 5 -7.835938 5.25 -7.703125 C 5.5 -7.578125 5.71875 -7.421875 5.90625 -7.234375 C 6.101562 -7.046875 6.273438 -6.835938 6.421875 -6.609375 L 5.859375 -6.171875 C 5.578125 -6.617188 5.222656 -6.9375 4.796875 -7.125 C 4.367188 -7.3125 3.898438 -7.382812 3.390625 -7.34375 C 2.972656 -7.3125 2.597656 -7.191406 2.265625 -6.984375 C 1.941406 -6.785156 1.671875 -6.523438 1.453125 -6.203125 C 1.242188 -5.878906 1.09375 -5.519531 1 -5.125 C 0.90625 -4.726562 0.875 -4.328125 0.90625 -3.921875 C 0.9375 -3.484375 1.039062 -3.078125 1.21875 -2.703125 C 1.394531 -2.335938 1.625 -2.019531 1.90625 -1.75 C 2.1875 -1.476562 2.507812 -1.269531 2.875 -1.125 C 3.238281 -0.976562 3.625 -0.921875 4.03125 -0.953125 C 4.46875 -0.992188 4.875 -1.132812 5.25 -1.375 C 5.632812 -1.613281 6 -1.96875 6.34375 -2.4375 L 6.234375 -3.703125 L 4.515625 -3.5625 L 4.46875 -4.15625 L 6.796875 -4.34375 L 7.109375 -0.578125 L 6.5 -0.53125 Z M 6.40625 -1.65625 "/></g></g></g><g fill="#fafafa" fill-opacity="1"><g transform="translate(202.416076, 269.601608)"><g/></g></g><g fill="#fafafa" fill-opacity="1"><g transform="translate(209.776425, 267.865121)"><g><path d="M 3.15625 -7.65625 C 2.875 -7.820312 2.535156 -7.914062 2.140625 -7.9375 C 1.753906 -7.96875 1.347656 -7.910156 0.921875 -7.765625 C 0.265625 -7.546875 -0.164062 -7.265625 -0.375 -6.921875 C -0.59375 -6.585938 -0.628906 -6.210938 -0.484375 -5.796875 C -0.410156 -5.566406 -0.3125 -5.394531 -0.1875 -5.28125 C -0.0625 -5.175781 0.0976562 -5.097656 0.296875 -5.046875 C 0.503906 -5.003906 0.75 -4.984375 1.03125 -4.984375 C 1.3125 -4.992188 1.632812 -5.023438 2 -5.078125 C 2.425781 -5.128906 2.8125 -5.15625 3.15625 -5.15625 C 3.5 -5.15625 3.804688 -5.113281 4.078125 -5.03125 C 4.347656 -4.957031 4.578125 -4.832031 4.765625 -4.65625 C 4.960938 -4.476562 5.113281 -4.226562 5.21875 -3.90625 C 5.332031 -3.570312 5.363281 -3.257812 5.3125 -2.96875 C 5.269531 -2.675781 5.160156 -2.40625 4.984375 -2.15625 C 4.804688 -1.914062 4.566406 -1.703125 4.265625 -1.515625 C 3.972656 -1.328125 3.632812 -1.164062 3.25 -1.03125 C 2.125 -0.65625 1.035156 -0.675781 -0.015625 -1.09375 L 0.15625 -1.8125 C 0.332031 -1.71875 0.53125 -1.640625 0.75 -1.578125 C 0.96875 -1.515625 1.203125 -1.472656 1.453125 -1.453125 C 1.703125 -1.429688 1.960938 -1.441406 2.234375 -1.484375 C 2.503906 -1.523438 2.78125 -1.59375 3.0625 -1.6875 C 3.644531 -1.882812 4.0625 -2.140625 4.3125 -2.453125 C 4.570312 -2.773438 4.628906 -3.144531 4.484375 -3.5625 C 4.410156 -3.789062 4.300781 -3.96875 4.15625 -4.09375 C 4.019531 -4.21875 3.835938 -4.300781 3.609375 -4.34375 C 3.378906 -4.394531 3.113281 -4.410156 2.8125 -4.390625 C 2.519531 -4.378906 2.175781 -4.359375 1.78125 -4.328125 C 1.363281 -4.285156 0.992188 -4.257812 0.671875 -4.25 C 0.359375 -4.25 0.0820312 -4.285156 -0.15625 -4.359375 C -0.40625 -4.441406 -0.613281 -4.566406 -0.78125 -4.734375 C -0.945312 -4.910156 -1.082031 -5.144531 -1.1875 -5.4375 C -1.300781 -5.769531 -1.335938 -6.085938 -1.296875 -6.390625 C -1.265625 -6.703125 -1.160156 -6.984375 -0.984375 -7.234375 C -0.804688 -7.484375 -0.578125 -7.707031 -0.296875 -7.90625 C -0.015625 -8.113281 0.316406 -8.28125 0.703125 -8.40625 C 1.179688 -8.570312 1.632812 -8.644531 2.0625 -8.625 C 2.488281 -8.601562 2.898438 -8.515625 3.296875 -8.359375 Z M 3.15625 -7.65625 "/></g></g></g><g fill="#fafafa" fill-opacity="1"><g transform="translate(220.51219, 263.843111)"><g><path d="M 2.515625 -9.140625 L 0.078125 -7.90625 L 3.265625 -1.671875 L 2.609375 -1.328125 L -0.578125 -7.5625 L -3.015625 -6.3125 L -3.3125 -6.90625 L 2.21875 -9.734375 Z M 2.515625 -9.140625 "/></g></g></g><g fill="#fafafa" fill-opacity="1"><g transform="translate(230.642864, 258.309417)"><g><path d="M 2.9375 -2.890625 C 3.332031 -3.171875 3.601562 -3.476562 3.75 -3.8125 C 3.90625 -4.15625 3.972656 -4.503906 3.953125 -4.859375 C 3.929688 -5.222656 3.835938 -5.578125 3.671875 -5.921875 C 3.503906 -6.273438 3.304688 -6.613281 3.078125 -6.9375 L 0.8125 -10.0625 L 1.421875 -10.515625 L 3.6875 -7.390625 C 3.988281 -6.960938 4.226562 -6.523438 4.40625 -6.078125 C 4.59375 -5.628906 4.679688 -5.1875 4.671875 -4.75 C 4.671875 -4.320312 4.566406 -3.90625 4.359375 -3.5 C 4.160156 -3.09375 3.820312 -2.71875 3.34375 -2.375 C 2.84375 -2.007812 2.359375 -1.796875 1.890625 -1.734375 C 1.429688 -1.671875 0.992188 -1.707031 0.578125 -1.84375 C 0.171875 -1.976562 -0.207031 -2.203125 -0.5625 -2.515625 C -0.925781 -2.835938 -1.25 -3.195312 -1.53125 -3.59375 L -3.796875 -6.71875 L -3.203125 -7.15625 L -0.9375 -4.03125 C -0.695312 -3.695312 -0.429688 -3.394531 -0.140625 -3.125 C 0.148438 -2.863281 0.457031 -2.671875 0.78125 -2.546875 C 1.101562 -2.421875 1.445312 -2.375 1.8125 -2.40625 C 2.175781 -2.445312 2.550781 -2.609375 2.9375 -2.890625 Z M 2.9375 -2.890625 "/></g></g></g><g fill="#fafafa" fill-opacity="1"><g transform="translate(241.028154, 250.263475)"><g><path d="M 0.6875 -0.6875 L -4.765625 -6.09375 L -2.9375 -7.9375 C -2.507812 -8.375 -2.0625 -8.679688 -1.59375 -8.859375 C -1.132812 -9.046875 -0.671875 -9.125 -0.203125 -9.09375 C 0.265625 -9.070312 0.71875 -8.953125 1.15625 -8.734375 C 1.59375 -8.515625 2 -8.21875 2.375 -7.84375 C 2.789062 -7.4375 3.101562 -7.003906 3.3125 -6.546875 C 3.519531 -6.085938 3.628906 -5.628906 3.640625 -5.171875 C 3.660156 -4.710938 3.578125 -4.253906 3.390625 -3.796875 C 3.203125 -3.347656 2.910156 -2.925781 2.515625 -2.53125 Z M 1.828125 -7.3125 C 1.492188 -7.644531 1.144531 -7.898438 0.78125 -8.078125 C 0.425781 -8.253906 0.0664062 -8.351562 -0.296875 -8.375 C -0.671875 -8.40625 -1.039062 -8.34375 -1.40625 -8.1875 C -1.78125 -8.03125 -2.128906 -7.785156 -2.453125 -7.453125 L -3.765625 -6.140625 L 0.71875 -1.6875 L 2.03125 -3 C 2.363281 -3.34375 2.597656 -3.695312 2.734375 -4.0625 C 2.878906 -4.4375 2.9375 -4.8125 2.90625 -5.1875 C 2.875 -5.570312 2.765625 -5.941406 2.578125 -6.296875 C 2.398438 -6.660156 2.148438 -7 1.828125 -7.3125 Z M 1.828125 -7.3125 "/></g></g></g><g fill="#fafafa" fill-opacity="1"><g transform="translate(249.531212, 241.030325)"><g><path d="M 0.59375 -0.765625 L -5.484375 -5.4375 L -5.03125 -6.03125 L 1.046875 -1.359375 Z M 0.59375 -0.765625 "/></g></g></g><g fill="#fafafa" fill-opacity="1"><g transform="translate(254.010071, 234.978194)"><g><path d="M 2.09375 -3.484375 C 1.820312 -3.015625 1.476562 -2.644531 1.0625 -2.375 C 0.644531 -2.101562 0.203125 -1.921875 -0.265625 -1.828125 C -0.742188 -1.742188 -1.226562 -1.742188 -1.71875 -1.828125 C -2.207031 -1.910156 -2.664062 -2.078125 -3.09375 -2.328125 C -3.53125 -2.578125 -3.90625 -2.894531 -4.21875 -3.28125 C -4.539062 -3.675781 -4.773438 -4.109375 -4.921875 -4.578125 C -5.066406 -5.046875 -5.117188 -5.519531 -5.078125 -6 C -5.046875 -6.488281 -4.898438 -6.957031 -4.640625 -7.40625 C -4.378906 -7.863281 -4.035156 -8.226562 -3.609375 -8.5 C -3.191406 -8.769531 -2.742188 -8.945312 -2.265625 -9.03125 C -1.785156 -9.113281 -1.300781 -9.113281 -0.8125 -9.03125 C -0.332031 -8.945312 0.113281 -8.785156 0.53125 -8.546875 C 0.976562 -8.285156 1.359375 -7.957031 1.671875 -7.5625 C 1.984375 -7.164062 2.210938 -6.738281 2.359375 -6.28125 C 2.503906 -5.832031 2.554688 -5.363281 2.515625 -4.875 C 2.484375 -4.382812 2.34375 -3.921875 2.09375 -3.484375 Z M -2.71875 -2.984375 C -2.351562 -2.765625 -1.96875 -2.617188 -1.5625 -2.546875 C -1.15625 -2.472656 -0.757812 -2.46875 -0.375 -2.53125 C 0 -2.59375 0.347656 -2.726562 0.671875 -2.9375 C 1.003906 -3.15625 1.28125 -3.453125 1.5 -3.828125 C 1.707031 -4.191406 1.816406 -4.570312 1.828125 -4.96875 C 1.847656 -5.375 1.789062 -5.757812 1.65625 -6.125 C 1.519531 -6.488281 1.316406 -6.820312 1.046875 -7.125 C 0.785156 -7.4375 0.484375 -7.691406 0.140625 -7.890625 C -0.210938 -8.097656 -0.585938 -8.238281 -0.984375 -8.3125 C -1.390625 -8.394531 -1.785156 -8.398438 -2.171875 -8.328125 C -2.566406 -8.253906 -2.921875 -8.109375 -3.234375 -7.890625 C -3.554688 -7.679688 -3.820312 -7.398438 -4.03125 -7.046875 C -4.25 -6.660156 -4.367188 -6.269531 -4.390625 -5.875 C -4.421875 -5.488281 -4.363281 -5.109375 -4.21875 -4.734375 C -4.082031 -4.367188 -3.882812 -4.035156 -3.625 -3.734375 C -3.363281 -3.429688 -3.0625 -3.179688 -2.71875 -2.984375 Z M -2.71875 -2.984375 "/></g></g></g><g clip-path="url(#id6)"><path fill="#ff1616" d="M 63.234375 196.171875 C 64.660156 194.421875 67.511719 192.089844 70.789062 190.570312 C 74.066406 189.050781 77.78125 188.347656 81.949219 188.386719 C 86.121094 188.425781 90.746094 189.203125 96.390625 190.917969 C 102.03125 192.628906 108.695312 195.277344 114.648438 197.492188 C 120.601562 199.703125 125.859375 201.496094 130.871094 202.121094 C 135.882812 202.746094 140.664062 202.199219 144.292969 200.773438 C 147.910156 199.339844 150.371094 197.027344 151.828125 195.304688 C 153.28125 193.582031 153.726562 192.457031 154.222656 191.503906 C 154.707031 190.550781 155.238281 189.769531 155.460938 189.828125 C 155.6875 189.886719 155.609375 190.78125 155.21875 192.035156 C 154.832031 193.285156 154.132812 194.902344 152.300781 196.914062 C 150.46875 198.925781 147.480469 201.339844 144.425781 202.929688 C 141.375 204.527344 138.230469 205.308594 133.925781 205.34375 C 129.609375 205.382812 124.132812 204.679688 118.605469 203.207031 C 113.078125 201.726562 107.511719 199.472656 101.984375 197.144531 C 96.457031 194.816406 90.96875 192.398438 85.664062 191.445312 C 80.351562 190.492188 75.21875 191.003906 71.3125 192.574219 C 67.40625 194.140625 64.730469 196.789062 63.34375 198.242188 C 61.964844 199.703125 61.886719 199.972656 61.847656 199.53125 C 61.808594 199.089844 61.808594 197.925781 63.234375 196.171875 Z M 63.234375 196.171875 " fill-opacity="1" fill-rule="evenodd"/></g></svg>